<svg xmlns="http://www.w3.org/2000/svg" viewBox="0 0 96 96">
  <rect width="96" height="96" rx="20" fill="#00ff88"/>
  <g transform="translate(16, 16)">
    <!-- Grid of receipts -->
    <!-- Top left -->
    <rect x="0" y="0" width="28" height="28" rx="4" fill="#ffffff"/>
    <rect x="4" y="6" width="16" height="3" rx="1.5" fill="#e0e0e0"/>
    <rect x="4" y="12" width="12" height="3" rx="1.5" fill="#e0e0e0"/>
    <rect x="4" y="20" width="8" height="3" rx="1.5" fill="#00cc6b"/>

    <!-- Top right -->
    <rect x="36" y="0" width="28" height="28" rx="4" fill="#ffffff"/>
    <rect x="40" y="6" width="16" height="3" rx="1.5" fill="#e0e0e0"/>
    <rect x="40" y="12" width="12" height="3" rx="1.5" fill="#e0e0e0"/>
    <rect x="40" y="20" width="8" height="3" rx="1.5" fill="#00cc6b"/>

    <!-- Bottom left -->
    <rect x="0" y="36" width="28" height="28" rx="4" fill="#ffffff"/>
    <rect x="4" y="42" width="16" height="3" rx="1.5" fill="#e0e0e0"/>
    <rect x="4" y="48" width="12" height="3" rx="1.5" fill="#e0e0e0"/>
    <rect x="4" y="56" width="8" height="3" rx="1.5" fill="#00cc6b"/>

    <!-- Bottom right -->
    <rect x="36" y="36" width="28" height="28" rx="4" fill="#ffffff"/>
    <rect x="40" y="42" width="16" height="3" rx="1.5" fill="#e0e0e0"/>
    <rect x="40" y="48" width="12" height="3" rx="1.5" fill="#e0e0e0"/>
    <rect x="40" y="56" width="8" height="3" rx="1.5" fill="#00cc6b"/>
  </g>
</svg>
